{
  "accessors": [
    {
      "bufferView": 2,
      "componentType": 5126,
      "count": 65532,
      "max": [
        1.4261897802352905,
        1.5040807723999023,
        3.2087554931640625
      ],
      "min": [
        -1.4061636924743652,
        -1.8187856674194336,
        -1.0796416997909546
      ],
      "type": "VEC3"
    },
    {
      "bufferView": 2,
      "byteOffset": 786384,
      "componentType": 5126,
      "count": 65532,
      "max": [
        0.9999979734420776,
        0.9999974370002747,
        0.9997915625572205
      ],
      "min": [
        -0.9999955892562866,
        -0.9999998807907104,
        -0.9999992251396179
      ],
      "type": "VEC3"
    },
    {
      "bufferView": 1,
      "componentType": 5126,
      "count": 65532,
      "max": [
        0.9980400204658508,
        0.7061100006103516
      ],
      "min": [
        0.0019499999471008778,
        0.0019499999471008778
      ],
      "type": "VEC2"
    },
    {
      "bufferView": 0,
      "componentType": 5125,
      "count": 374205,
      "type": "SCALAR"
    },
    {
      "bufferView": 2,
      "byteOffset": 1572768,
      "componentType": 5126,
      "count": 49005,
      "max": [
        1.029710292816162,
        1.5040807723999023,
        3.2087554931640625
      ],
      "min": [
        -1.426189661026001,
        -1.8187856674194336,
        -1.0790581703186035
      ],
      "type": "VEC3"
    },
    {
      "bufferView": 2,
      "byteOffset": 2160828,
      "componentType": 5126,
      "count": 49005,
      "max": [
        0.9995940327644348,
        0.9999974370002747,
        0.9999727606773376
      ],
      "min": [
        -0.9999979734420776,
        -0.9999998807907104,
        -0.9999992251396179
      ],
      "type": "VEC3"
    },
    {
      "bufferView": 1,
      "byteOffset": 524256,
      "componentType": 5126,
      "count": 49005,
      "max": [
        0.8873500227928162,
        0.7036299705505371
      ],
      "min": [
        0.009379999712109566,
        0.01233999989926815
      ],
      "type": "VEC2"
    },
    {
      "bufferView": 0,
      "byteOffset": 1496820,
      "componentType": 5125,
      "count": 276327,
      "type": "SCALAR"
    },
    {
      "bufferView": 2,
      "byteOffset": 2748888,
      "componentType": 5126,
      "count": 258,
      "max": [
        18.42375946044922,
        3.3172810077667236,
        1.6066501140594482
      ],
      "min": [
        -18.42375946044922,
        -21.919361114501953,
        -0.9626969695091248
      ],
      "type": "VEC3"
    },
    {
      "bufferView": 2,
      "byteOffset": 2751984,
      "componentType": 5126,
      "count": 258,
      "max": [
        0.9996942281723022,
        0.9984605312347412,
        0.9998124241828918
      ],
      "min": [
        -0.9872991442680359,
        -0.9999999403953552,
        -0.9998122453689575
      ],
      "type": "VEC3"
    },
    {
      "bufferView": 1,
      "byteOffset": 916296,
      "componentType": 5126,
      "count": 258,
      "max": [
        1.1141252517700195,
        0.9206106662750244
      ],
      "min": [
        -0.1141253113746643,
        0.07938933372497559
      ],
      "type": "VEC2"
    },
    {
      "bufferView": 0,
      "byteOffset": 2602128,
      "componentType": 5125,
      "count": 1044,
      "type": "SCALAR"
    }
  ],
  "asset": {
    "extras": {
      "author": "dg samples (https://sketchfab.com/dgsamples)",
      "license": "CC-BY-4.0 (http://creativecommons.org/licenses/by/4.0/)",
      "source": "https://sketchfab.com/3d-models/berry-the-fat-hamster-c15e63d0219c4001af22f189c959e829",
      "title": "Berry the fat hamster"
    },
    "generator": "Sketchfab-16.16.0",
    "version": "2.0"
  },
  "bufferViews": [
    {
      "buffer": 0,
      "byteLength": 2606304,
      "name": "floatBufferViews",
      "target": 34963
    },
    {
      "buffer": 0,
      "byteLength": 918360,
      "byteOffset": 2606304,
      "byteStride": 8,
      "name": "floatBufferViews",
      "target": 34962
    },
    {
      "buffer": 0,
      "byteLength": 2755080,
      "byteOffset": 3524664,
      "byteStride": 12,
      "name": "floatBufferViews",
      "target": 34962
    }
  ],
  "buffers": [
    {
      "byteLength": 6279744,
      "uri": "scene.bin"
    }
  ],
  "extensionsUsed": [
    "KHR_materials_specular"
  ],
  "images": [
    {
      "uri": "textures/Hammy_01_OBJ_defaultMat_baseColor.png"
    },
    {
      "uri": "textures/Hammy_01_OBJ_defaultMat_metallicRoughness.png"
    },
    {
      "uri": "textures/Material_25_baseColor.jpeg"
    }
  ],
  "materials": [
    {
      "doubleSided": true,
      "extensions": {
        "KHR_materials_specular": {
          "specularColorFactor": [
            1.0,
            1.0,
            1.0
          ],
          "specularFactor": 0.3946678694639831
        }
      },
      "name": "Hammy_01_OBJ_defaultMat",
      "pbrMetallicRoughness": {
        "baseColorFactor": [
          0.7481927563969718,
          0.7481927563969718,
          0.7481927563969718,
          1.0
        ],
        "baseColorTexture": {
          "index": 0
        },
        "metallicFactor": 0.12647657592861233,
        "metallicRoughnessTexture": {
          "index": 1
        }
      }
    },
    {
      "doubleSided": true,
      "extensions": {
        "KHR_materials_specular": {
          "specularColorFactor": [
            1.0,
            1.0,
            1.0
          ],
          "specularFactor": 0.3702868427789494
        }
      },
      "name": "Material_25",
      "pbrMetallicRoughness": {
        "baseColorFactor": [
          0.6811449330131292,
          0.6811449330131292,
          0.6811449330131292,
          1.0
        ],
        "baseColorTexture": {
          "index": 2
        },
        "metallicFactor": 0.18742914264119662,
        "roughnessFactor": 0.7089514939474102
      }
    }
  ],
  "meshes": [
    {
      "name": "Hammy_01_Hammy_01_OBJ_defaultMat_0",
      "primitives": [
        {
          "attributes": {
            "NORMAL": 1,
            "POSITION": 0,
            "TEXCOORD_0": 2
          },
          "indices": 3,
          "material": 0,
          "mode": 4
        }
      ]
    },
    {
      "name": "Hammy_01_Hammy_01_OBJ_defaultMat_0",
      "primitives": [
        {
          "attributes": {
            "NORMAL": 5,
            "POSITION": 4,
            "TEXCOORD_0": 6
          },
          "indices": 7,
          "material": 0,
          "mode": 4
        }
      ]
    },
    {
      "name": "Nachos_Material #25_0",
      "primitives": [
        {
          "attributes": {
            "NORMAL": 9,
            "POSITION": 8,
            "TEXCOORD_0": 10
          },
          "indices": 11,
          "material": 1,
          "mode": 4
        }
      ]
    }
  ],
  "nodes": [
    {
      "children": [
        1
      ],
      "matrix": [
        1.0,
        0.0,
        0.0,
        0.0,
        0.0,
        2.220446049250313e-16,
        -1.0,
        0.0,
        0.0,
        1.0,
        2.220446049250313e-16,
        0.0,
        0.0,
        0.0,
        0.0,
        1.0
      ],
      "name": "Sketchfab_model"
    },
    {
      "children": [
        2
      ],
      "matrix": [
        0.02539999969303608,
        0.0,
        0.0,
        0.0,
        0.0,
        0.0,
        0.02539999969303608,
        0.0,
        0.0,
        -0.02539999969303608,
        0.0,
        0.0,
        0.0,
        0.0,
        0.0,
        1.0
      ],
      "name": "b8135f2ba02245b08fcb7749c218aa04.fbx"
    },
    {
      "children": [
        3,
        6
      ],
      "name": "RootNode"
    },
    {
      "children": [
        4,
        5
      ],
      "matrix": [
        17.18855857849121,
        0.0,
        0.0,
        0.0,
        0.0,
        3.816626698791839e-15,
        -17.18855857849121,
        0.0,
        0.0,
        17.18855857849121,
        3.816626698791839e-15,
        0.0,
        0.3229961395263672,
        18.70778465270996,
        -1.049748420715332,
        1.0
      ],
      "name": "Hammy_01"
    },
    {
      "mesh": 0,
      "name": "Hammy_01_Hammy_01_OBJ_defaultMat_0"
    },
    {
      "mesh": 1,
      "name": "Hammy_01_Hammy_01_OBJ_defaultMat_0"
    },
    {
      "children": [
        7
      ],
      "matrix": [
        0.5037999749183655,
        0.0,
        0.0,
        0.0,
        0.0,
        0.6056997045928346,
        -0.12215607924553291,
        0.0,
        0.0,
        0.02990406569130923,
        0.14827656443478301,
        0.0,
        0.9582290649414063,
        43.6029052734375,
        26.858108520507813,
        1.0
      ],
      "name": "Nachos"
    },
    {
      "mesh": 2,
      "name": "Nachos_Material #25_0"
    }
  ],
  "samplers": [
    {
      "magFilter": 9729,
      "minFilter": 9987,
      "wrapS": 10497,
      "wrapT": 10497
    }
  ],
  "scene": 0,
  "scenes": [
    {
      "name": "Sketchfab_Scene",
      "nodes": [
        0
      ]
    }
  ],
  "textures": [
    {
      "sampler": 0,
      "source": 0
    },
    {
      "sampler": 0,
      "source": 1
    },
    {
      "sampler": 0,
      "source": 2
    }
  ]
}
