{
  "accessors": [
    {
      "bufferView": 2,
      "componentType": 5126,
      "count": 6144,
      "max": [
        1.9789780378341675,
        0.5678876638412476,
        0.42409658432006836
      ],
      "min": [
        -1.9789780378341675,
        -0.5678876638412476,
        -0.12334295362234116
      ],
      "type": "VEC3"
    },
    {
      "bufferView": 2,
      "byteOffset": 73728,
      "componentType": 5126,
      "count": 6144,
      "max": [
        1.0,
        0.9973714351654053,
        1.0
      ],
      "min": [
        -1.0,
        -0.9973716139793396,
        -1.0
      ],
      "type": "VEC3"
    },
    {
      "bufferView": 1,
      "componentType": 5126,
      "count": 6144,
      "max": [
        0.0,
        0.0
      ],
      "min": [
        0.0,
        0.0
      ],
      "type": "VEC2"
    },
    {
      "bufferView": 0,
      "componentType": 5125,
      "count": 36864,
      "type": "SCALAR"
    },
    {
      "bufferView": 2,
      "byteOffset": 147456,
      "componentType": 5126,
      "count": 65533,
      "max": [
        0.24902348220348358,
        0.2416030764579773,
        0.11197919398546219
      ],
      "min": [
        -0.24902349710464478,
        -0.23666585981845856,
        -0.1250000298023224
      ],
      "type": "VEC3"
    },
    {
      "bufferView": 2,
      "byteOffset": 933852,
      "componentType": 5126,
      "count": 65533,
      "max": [
        0.9995543956756592,
        0.9997365474700928,
        1.0
      ],
      "min": [
        -0.9995540976524353,
        -1.0,
        -1.0
      ],
      "type": "VEC3"
    },
    {
      "bufferView": 1,
      "byteOffset": 49152,
      "componentType": 5126,
      "count": 65533,
      "max": [
        0.8750002384185791,
        1.000000238418579
      ],
      "min": [
        0.125,
        0.25
      ],
      "type": "VEC2"
    },
    {
      "bufferView": 0,
      "byteOffset": 147456,
      "componentType": 5125,
      "count": 98349,
      "type": "SCALAR"
    },
    {
      "bufferView": 2,
      "byteOffset": 1720248,
      "componentType": 5126,
      "count": 6115,
      "max": [
        0.2489868402481079,
        0.23759762942790985,
        0.108042411506176
      ],
      "min": [
        -0.24902351200580597,
        -0.23261408507823944,
        -0.12050078809261322
      ],
      "type": "VEC3"
    },
    {
      "bufferView": 2,
      "byteOffset": 1793628,
      "componentType": 5126,
      "count": 6115,
      "max": [
        0.9940646886825562,
        0.6306151747703552,
        0.9999152421951294
      ],
      "min": [
        -0.9995547533035278,
        -0.9659794569015503,
        -0.6343330144882202
      ],
      "type": "VEC3"
    },
    {
      "bufferView": 1,
      "byteOffset": 573416,
      "componentType": 5126,
      "count": 6115,
      "max": [
        0.8750002384185791,
        1.000000238418579
      ],
      "min": [
        0.125,
        0.25
      ],
      "type": "VEC2"
    },
    {
      "bufferView": 0,
      "byteOffset": 540852,
      "componentType": 5125,
      "count": 9171,
      "type": "SCALAR"
    },
    {
      "bufferView": 2,
      "byteOffset": 1867008,
      "componentType": 5126,
      "count": 72,
      "max": [
        4.1796674728393555,
        0.0,
        -0.5
      ],
      "min": [
        -6.020318031311035,
        -2.000624179840088,
        -0.5
      ],
      "type": "VEC3"
    },
    {
      "bufferView": 2,
      "byteOffset": 1867872,
      "componentType": 5126,
      "count": 72,
      "max": [
        0.0,
        0.0,
        1.0
      ],
      "min": [
        0.0,
        0.0,
        1.0
      ],
      "type": "VEC3"
    },
    {
      "bufferView": 1,
      "byteOffset": 622336,
      "componentType": 5126,
      "count": 72,
      "max": [
        1.0,
        1.0
      ],
      "min": [
        0.0,
        0.0
      ],
      "type": "VEC2"
    },
    {
      "bufferView": 0,
      "byteOffset": 577536,
      "componentType": 5125,
      "count": 252,
      "type": "SCALAR"
    }
  ],
  "asset": {
    "extras": {
      "author": "MaggaModels (https://sketchfab.com/MaggaModels)",
      "license": "CC-BY-4.0 (http://creativecommons.org/licenses/by/4.0/)",
      "source": "https://sketchfab.com/3d-models/ribbon-bow-4df59dfe3a474b07a408c037eacb6a6f",
      "title": "Ribbon Bow"
    },
    "generator": "Sketchfab-14.64.0",
    "version": "2.0"
  },
  "bufferViews": [
    {
      "buffer": 0,
      "byteLength": 578544,
      "name": "floatBufferViews",
      "target": 34963
    },
    {
      "buffer": 0,
      "byteLength": 622912,
      "byteOffset": 578544,
      "byteStride": 8,
      "name": "floatBufferViews",
      "target": 34962
    },
    {
      "buffer": 0,
      "byteLength": 1868736,
      "byteOffset": 1201456,
      "byteStride": 12,
      "name": "floatBufferViews",
      "target": 34962
    }
  ],
  "buffers": [
    {
      "byteLength": 3070192,
      "uri": "scene.bin"
    }
  ],
  "materials": [
    {
      "doubleSided": true,
      "name": "red_bow",
      "pbrMetallicRoughness": {
        "baseColorFactor": [
          0.4,
          0.02,
          0.02,
          1.0
        ],
        "metallicFactor": 0.0,
        "roughnessFactor": 0.5
      }
    }
  ],
  "meshes": [
    {
      "name": "bow ears_red bow_0",
      "primitives": [
        {
          "attributes": {
            "NORMAL": 1,
            "POSITION": 0,
            "TEXCOORD_0": 2
          },
          "indices": 3,
          "material": 0,
          "mode": 4
        }
      ]
    },
    {
      "name": "bow knot_red bow_0",
      "primitives": [
        {
          "attributes": {
            "NORMAL": 5,
            "POSITION": 4,
            "TEXCOORD_0": 6
          },
          "indices": 7,
          "material": 0,
          "mode": 4
        }
      ]
    },
    {
      "name": "bow knot_red bow_0",
      "primitives": [
        {
          "attributes": {
            "NORMAL": 9,
            "POSITION": 8,
            "TEXCOORD_0": 10
          },
          "indices": 11,
          "material": 0,
          "mode": 4
        }
      ]
    },
    {
      "name": "bow tail_red bow_0",
      "primitives": [
        {
          "attributes": {
            "NORMAL": 13,
            "POSITION": 12,
            "TEXCOORD_0": 14
          },
          "indices": 15,
          "material": 0,
          "mode": 4
        }
      ]
    }
  ],
  "nodes": [
    {
      "children": [
        1
      ],
      "matrix": [
        1.0,
        0.0,
        0.0,
        0.0,
        0.0,
        3.828568672208042e-16,
        -1.0,
        0.0,
        0.0,
        1.0,
        3.828568672208042e-16,
        0.0,
        0.0,
        0.0,
        0.0,
        1.0
      ],
      "name": "Sketchfab_model"
    },
    {
      "children": [
        2
      ],
      "matrix": [
        0.009999999776482582,
        0.0,
        0.0,
        0.0,
        0.0,
        0.0,
        0.009999999776482582,
        0.0,
        0.0,
        -0.009999999776482582,
        0.0,
        0.0,
        0.0,
        0.0,
        0.0,
        1.0
      ],
      "name": "4310425518194c3d8aebd787f94abd9d.fbx"
    },
    {
      "children": [
        3,
        5,
        8
      ],
      "name": "RootNode"
    },
    {
      "children": [
        4
      ],
      "matrix": [
        100.0,
        0.0,
        0.0,
        0.0,
        0.0,
        -1.629206793918314e-05,
        -99.99999999999868,
        0.0,
        0.0,
        99.99999999999868,
        -1.629206793918314e-05,
        0.0,
        0.0,
        12.5,
        0.0,
        1.0
      ],
      "name": "bow ears"
    },
    {
      "mesh": 0,
      "name": "bow ears_red bow_0"
    },
    {
      "children": [
        6,
        7
      ],
      "matrix": [
        100.0,
        0.0,
        0.0,
        0.0,
        0.0,
        -1.629206793918314e-05,
        -99.99999999999868,
        0.0,
        0.0,
        99.99999999999868,
        -1.629206793918314e-05,
        0.0,
        0.0,
        12.5,
        0.0,
        1.0
      ],
      "name": "bow knot"
    },
    {
      "mesh": 1,
      "name": "bow knot_red bow_0"
    },
    {
      "mesh": 2,
      "name": "bow knot_red bow_0"
    },
    {
      "children": [
        9
      ],
      "matrix": [
        10.0,
        0.0,
        0.0,
        0.0,
        0.0,
        -1.1404447557428199e-05,
        -69.99999999999908,
        0.0,
        0.0,
        24.99999999999967,
        -4.073016984795785e-06,
        0.0,
        0.0,
        13.0,
        15.000000953674316,
        1.0
      ],
      "name": "bow tail"
    },
    {
      "mesh": 3,
      "name": "bow tail_red bow_0"
    }
  ],
  "scene": 0,
  "scenes": [
    {
      "name": "Sketchfab_Scene",
      "nodes": [
        0
      ]
    }
  ]
}
